<?xml version="1.0" encoding="UTF-8"?>
<svg id="Layer_2" data-name="Layer 2" xmlns="http://www.w3.org/2000/svg" xmlns:xlink="http://www.w3.org/1999/xlink" viewBox="0 0 1307.08 552.45">
  <defs>
    <style>
      .cls-1 {
        fill: #fff;
        filter: url(#drop-shadow-1);
        font-family: OctoberCompressedTL-Regular, 'OctoberCompressedTL Regular';
        font-size: 120.07px;
      }

      .cls-2 {
        letter-spacing: .03em;
      }
    </style>
    <filter id="drop-shadow-1" filterUnits="userSpaceOnUse">
      <feOffset dx="7" dy="7"/>
      <feGaussianBlur result="blur" stdDeviation="8"/>
      <feFlood flood-color="#000" flood-opacity=".75"/>
      <feComposite in2="blur" operator="in"/>
      <feComposite in="SourceGraphic"/>
    </filter>
  </defs>
  <g id="Layer_1-2" data-name="Layer 1">
    <path d="M693.05,263.45c11.28,22.26,170.19-32.68,255-62,85.14-29.44,158.28-59.9,160-56,2.17,4.91-112.37,56.56-109,65,4.24,10.64,190.38-60.89,196-48,6.71,15.4-249.1,139.69-247,144,2.46,5.05,355.58-161.95,359-155,2.52,5.11-187.2,97.51-311,189-8.26,6.1-30.38,22.66-62,43-50.89,32.73-86.32,55.52-133,73-86.96,32.57-146.35,21.76-167,64-6.35,13-9.67,32.3-16,32-6.55-.31-6.76-21.11-15-37-18.85-36.33-75.09-38.05-119-46-19.33-3.5-65.55-24.67-158-67C175.16,333.36,33.02,231.48,40.05,218.45c7.76-14.36,195.54,81.56,204,66C254.21,265.79-4.32,106.6,.05,99.45c4.57-7.45,283.28,170.42,305,142C325.89,214.18,99.06,11.62,109.05,.45c12.37-13.82,361.7,294.35,391,265,16.79-16.81-71.5-144.29-72-144-.43,.25,50.11,104.1,115,121,9.12,2.37,29.11,7.58,49-1,20.21-8.72,31.38-27.83,34-26,3.21,2.25-16.59,28.98-11,35,8.91,9.59,75.14-40.88,79-36,3.07,3.89-37.14,38.23-35,41,4.56,5.91,199.54-134.63,200-134,.43,.59-178.74,116.86-166,142Z"/>
    <text class="cls-1" transform="translate(401.18 393.5)"><tspan x="0" y="0">SPE</tspan><tspan class="cls-2" x="182.15" y="0">C</tspan><tspan x="255.15" y="0">TRE</tspan></text>
  </g>
</svg>